# Blender 3.6.5
# www.blender.org
mtllib swing1.mtl
o ĞšÑƒĞ±.004
v -2.559604 -1.879018 0.181779
v -2.599888 -1.895705 0.061979
v -1.940862 -1.622727 -0.061979
v -1.981147 -1.639414 -0.181779
v -3.138853 -0.480586 0.181779
v -3.179138 -0.497273 0.061979
v -2.520112 -0.224295 -0.061979
v -2.560396 -0.240982 -0.181779
v -2.519556 -0.225686 -0.061726
v -2.559987 -0.242433 -0.181961
v -2.552113 -0.163904 -0.059383
v -2.592544 -0.180651 -0.179619
v -2.595310 -0.109423 -0.052446
v -2.635741 -0.126170 -0.172682
v -2.647488 -0.064335 -0.041180
v -2.687919 -0.081082 -0.161416
v -2.706642 -0.030374 -0.026019
v -2.747073 -0.047121 -0.146255
v -2.770498 -0.008844 -0.007546
v -2.810929 -0.025591 -0.127781
v -2.836602 -0.000573 0.013531
v -2.877033 -0.017320 -0.106705
v -2.902414 -0.005878 0.036400
v -2.942845 -0.022625 -0.083836
v -2.965405 -0.024557 0.060183
v -3.005836 -0.041304 -0.060052
v -3.023154 -0.055891 0.083966
v -3.063585 -0.072638 -0.036269
v -3.073442 -0.098675 0.106836
v -3.113873 -0.115422 -0.013400
v -3.114336 -0.151266 0.127912
v -3.154767 -0.168013 0.007677
v -3.144265 -0.211643 0.146386
v -3.184696 -0.228390 0.026150
v -3.162078 -0.277485 0.161547
v -3.202509 -0.294232 0.041311
v -3.167092 -0.346263 0.172812
v -3.207523 -0.363010 0.052577
v -3.159113 -0.415332 0.179750
v -3.199544 -0.432079 0.059514
v -3.138448 -0.482039 0.182092
v -3.178879 -0.498787 0.061857
v -1.980871 -1.640542 -0.181961
v -1.940440 -1.623795 -0.061726
v -1.960206 -1.707249 -0.179619
v -1.919775 -1.690502 -0.059383
v -1.952227 -1.776319 -0.172682
v -1.911796 -1.759572 -0.052446
v -1.957241 -1.845096 -0.161416
v -1.916810 -1.828349 -0.041180
v -1.975054 -1.910938 -0.146255
v -1.934623 -1.894191 -0.026020
v -2.004983 -1.971315 -0.127781
v -1.964552 -1.954568 -0.007546
v -2.045877 -2.023906 -0.106705
v -2.005446 -2.007159 0.013531
v -2.096165 -2.066691 -0.083836
v -2.055734 -2.049944 0.036400
v -2.153914 -2.098024 -0.060052
v -2.113483 -2.081277 0.060183
v -2.216905 -2.116703 -0.036269
v -2.176474 -2.099956 0.083966
v -2.282717 -2.122009 -0.013400
v -2.242286 -2.105262 0.106836
v -2.348822 -2.113738 0.007677
v -2.308391 -2.096991 0.127912
v -2.412677 -2.092208 0.026150
v -2.372247 -2.075461 0.146386
v -2.471831 -2.058246 0.041311
v -2.431400 -2.041499 0.161547
v -2.524009 -2.013159 0.052577
v -2.483578 -1.996411 0.172812
v -2.567207 -1.958677 0.059514
v -2.526776 -1.941930 0.179750
v -2.599763 -1.896896 0.061857
v -2.559333 -1.880149 0.182092
vn 0.3827 -0.9239 -0.0000
vn 0.8682 0.3596 -0.3420
vn -0.3827 0.9239 -0.0000
vn -0.8682 -0.3596 0.3420
vn 0.3160 0.1309 0.9397
vn -0.3160 -0.1309 -0.9397
vn 0.8265 0.4484 -0.3404
vn 0.7197 0.6123 -0.3273
vn 0.5853 0.7527 -0.3016
vn 0.4283 0.8641 -0.2644
vn 0.2549 0.9423 -0.2170
vn 0.0718 0.9843 -0.1612
vn -0.1142 0.9885 -0.0993
vn -0.2957 0.9547 -0.0335
vn -0.4659 0.8842 0.0335
vn -0.6182 0.7797 0.0993
vn -0.7467 0.6453 0.1612
vn -0.8466 0.4860 0.2170
vn -0.9139 0.3081 0.2644
vn -0.9460 0.1184 0.3016
vn -0.9419 -0.0759 0.3273
vn -0.9015 -0.2673 0.3404
vn 0.9015 0.2673 -0.3404
vn 0.9419 0.0759 -0.3273
vn 0.9460 -0.1184 -0.3016
vn 0.9139 -0.3081 -0.2644
vn 0.8466 -0.4860 -0.2170
vn 0.7467 -0.6453 -0.1612
vn 0.6182 -0.7797 -0.0993
vn 0.4659 -0.8842 -0.0335
vn 0.2957 -0.9547 0.0335
vn 0.1142 -0.9885 0.0993
vn -0.0718 -0.9843 0.1612
vn -0.2549 -0.9423 0.2170
vn -0.4283 -0.8641 0.2644
vn -0.5853 -0.7527 0.3016
vn -0.7197 -0.6123 0.3273
vn -0.8265 -0.4484 0.3404
vt 0.625000 0.000000
vt 0.375000 0.250000
vt 0.375000 0.000000
vt 0.625000 0.250000
vt 0.375000 0.500000
vt 0.625000 0.500000
vt 0.375000 0.750000
vt 0.625000 0.750000
vt 0.375000 1.000000
vt 0.125000 0.750000
vt 0.125000 0.500000
vt 0.875000 0.500000
vt 0.750000 1.000000
vt 0.718750 0.500000
vt 0.750000 0.500000
vt 0.718750 1.000000
vt 0.687500 0.500000
vt 0.687500 1.000000
vt 0.656250 0.500000
vt 0.656250 1.000000
vt 0.625000 1.000000
vt 0.593750 0.500000
vt 0.593750 1.000000
vt 0.562500 0.500000
vt 0.562500 1.000000
vt 0.531250 0.500000
vt 0.531250 1.000000
vt 0.500000 0.500000
vt 0.500000 1.000000
vt 0.468750 0.500000
vt 0.468750 1.000000
vt 0.437500 0.500000
vt 0.437500 1.000000
vt 0.406250 0.500000
vt 0.406250 1.000000
vt 0.343750 0.500000
vt 0.343750 1.000000
vt 0.312500 0.500000
vt 0.312500 1.000000
vt 0.281250 0.500000
vt 0.281250 1.000000
vt 0.250000 0.500000
vt 0.010000 0.250000
vt 0.250000 0.010000
vt 0.419706 0.080294
vt 0.990000 0.250000
vt 0.750000 0.010000
vt 0.580294 0.080294
vt 0.875000 0.750000
vt 0.250000 1.000000
vt 0.485388 0.203178
vt 0.490000 0.250000
vt 0.014612 0.203178
vt 0.028269 0.158156
vt 0.050447 0.116663
vt 0.080294 0.080294
vt 0.116663 0.050447
vt 0.158156 0.028269
vt 0.203178 0.014612
vt 0.296822 0.014612
vt 0.341844 0.028269
vt 0.383337 0.050447
vt 0.449553 0.116663
vt 0.471731 0.158156
vt 0.514612 0.203178
vt 0.510000 0.250000
vt 0.985388 0.203178
vt 0.971731 0.158156
vt 0.949553 0.116663
vt 0.919706 0.080294
vt 0.883337 0.050447
vt 0.841844 0.028269
vt 0.796822 0.014612
vt 0.703178 0.014612
vt 0.658156 0.028269
vt 0.616663 0.050447
vt 0.550447 0.116663
vt 0.528269 0.158156
s 0
f 2/1/1 3/2/1 1/3/1
f 4/4/2 7/5/2 3/2/2
f 8/6/3 5/7/3 7/5/3
f 6/8/4 1/9/4 5/7/4
f 7/5/5 1/10/5 3/11/5
f 4/12/6 6/8/6 8/6/6
f 10/13/7 11/14/7 9/15/7
f 12/16/8 13/17/8 11/14/8
f 14/18/9 15/19/9 13/17/9
f 16/20/10 17/6/10 15/19/10
f 18/21/11 19/22/11 17/6/11
f 20/23/12 21/24/12 19/22/12
f 22/25/13 23/26/13 21/24/13
f 24/27/14 25/28/14 23/26/14
f 26/29/15 27/30/15 25/28/15
f 28/31/16 29/32/16 27/30/16
f 30/33/17 31/34/17 29/32/17
f 32/35/18 33/5/18 31/34/18
f 34/9/19 35/36/19 33/5/19
f 36/37/20 37/38/20 35/36/20
f 38/39/21 39/40/21 37/38/21
f 40/41/22 41/42/22 39/40/22
f 42/43/6 26/44/6 18/45/6
f 9/46/5 25/47/5 33/48/5
f 44/13/23 45/14/23 43/15/23
f 46/16/24 47/17/24 45/14/24
f 48/18/25 49/19/25 47/17/25
f 50/20/26 51/6/26 49/19/26
f 52/21/27 53/22/27 51/6/27
f 54/23/28 55/24/28 53/22/28
f 56/25/29 57/26/29 55/24/29
f 58/27/30 59/28/30 57/26/30
f 60/29/31 61/30/31 59/28/31
f 62/31/32 63/32/32 61/30/32
f 64/33/33 65/34/33 63/32/33
f 66/35/34 67/5/34 65/34/34
f 68/9/35 69/36/35 67/5/35
f 70/37/36 71/38/36 69/36/36
f 72/39/37 73/40/37 71/38/37
f 74/41/38 75/42/38 73/40/38
f 76/43/5 60/44/5 52/45/5
f 43/46/6 59/47/6 67/48/6
f 2/1/1 4/4/1 3/2/1
f 4/4/2 8/6/2 7/5/2
f 8/6/3 6/8/3 5/7/3
f 6/8/4 2/21/4 1/9/4
f 7/5/5 5/7/5 1/10/5
f 4/12/6 2/49/6 6/8/6
f 10/13/7 12/16/7 11/14/7
f 12/16/8 14/18/8 13/17/8
f 14/18/9 16/20/9 15/19/9
f 16/20/10 18/21/10 17/6/10
f 18/21/11 20/23/11 19/22/11
f 20/23/12 22/25/12 21/24/12
f 22/25/13 24/27/13 23/26/13
f 24/27/14 26/29/14 25/28/14
f 26/29/15 28/31/15 27/30/15
f 28/31/16 30/33/16 29/32/16
f 30/33/17 32/35/17 31/34/17
f 32/35/18 34/9/18 33/5/18
f 34/9/19 36/37/19 35/36/19
f 36/37/20 38/39/20 37/38/20
f 38/39/21 40/41/21 39/40/21
f 40/41/22 42/50/22 41/42/22
f 12/51/6 10/52/6 42/43/6
f 42/43/6 40/53/6 38/54/6
f 38/54/6 36/55/6 34/56/6
f 34/56/6 32/57/6 30/58/6
f 30/58/6 28/59/6 26/44/6
f 26/44/6 24/60/6 22/61/6
f 22/61/6 20/62/6 18/45/6
f 18/45/6 16/63/6 14/64/6
f 14/64/6 12/51/6 42/43/6
f 42/43/6 38/54/6 34/56/6
f 34/56/6 30/58/6 26/44/6
f 26/44/6 22/61/6 18/45/6
f 18/45/6 14/64/6 42/43/6
f 42/43/6 34/56/6 26/44/6
f 39/65/5 41/66/5 9/46/5
f 9/46/5 11/67/5 13/68/5
f 13/68/5 15/69/5 17/70/5
f 17/70/5 19/71/5 21/72/5
f 21/72/5 23/73/5 25/47/5
f 25/47/5 27/74/5 29/75/5
f 29/75/5 31/76/5 33/48/5
f 33/48/5 35/77/5 37/78/5
f 37/78/5 39/65/5 9/46/5
f 9/46/5 13/68/5 17/70/5
f 17/70/5 21/72/5 25/47/5
f 25/47/5 29/75/5 33/48/5
f 33/48/5 37/78/5 9/46/5
f 9/46/5 17/70/5 25/47/5
f 44/13/23 46/16/23 45/14/23
f 46/16/24 48/18/24 47/17/24
f 48/18/25 50/20/25 49/19/25
f 50/20/26 52/21/26 51/6/26
f 52/21/27 54/23/27 53/22/27
f 54/23/28 56/25/28 55/24/28
f 56/25/29 58/27/29 57/26/29
f 58/27/30 60/29/30 59/28/30
f 60/29/31 62/31/31 61/30/31
f 62/31/32 64/33/32 63/32/32
f 64/33/33 66/35/33 65/34/33
f 66/35/34 68/9/34 67/5/34
f 68/9/35 70/37/35 69/36/35
f 70/37/36 72/39/36 71/38/36
f 72/39/37 74/41/37 73/40/37
f 74/41/38 76/50/38 75/42/38
f 46/51/5 44/52/5 76/43/5
f 76/43/5 74/53/5 72/54/5
f 72/54/5 70/55/5 68/56/5
f 68/56/5 66/57/5 64/58/5
f 64/58/5 62/59/5 60/44/5
f 60/44/5 58/60/5 56/61/5
f 56/61/5 54/62/5 52/45/5
f 52/45/5 50/63/5 48/64/5
f 48/64/5 46/51/5 76/43/5
f 76/43/5 72/54/5 68/56/5
f 68/56/5 64/58/5 60/44/5
f 60/44/5 56/61/5 52/45/5
f 52/45/5 48/64/5 76/43/5
f 76/43/5 68/56/5 60/44/5
f 73/65/6 75/66/6 43/46/6
f 43/46/6 45/67/6 47/68/6
f 47/68/6 49/69/6 51/70/6
f 51/70/6 53/71/6 55/72/6
f 55/72/6 57/73/6 59/47/6
f 59/47/6 61/74/6 63/75/6
f 63/75/6 65/76/6 67/48/6
f 67/48/6 69/77/6 71/78/6
f 71/78/6 73/65/6 43/46/6
f 43/46/6 47/68/6 51/70/6
f 51/70/6 55/72/6 59/47/6
f 59/47/6 63/75/6 67/48/6
f 67/48/6 71/78/6 43/46/6
f 43/46/6 51/70/6 59/47/6
